<svg width="406" height="64" viewBox="0 0 406 64" fill="none" xmlns="http://www.w3.org/2000/svg">
<g opacity="0.5">
<path d="M179.173 31.0977H191.052V33.3216H191.117C192.289 31.686 193.949 30.8025 195.706 30.8025H195.901V36.3334C195.414 36.3008 194.958 36.2682 194.697 36.2682C192.289 36.2682 191.052 37.8072 191.052 39.903V47.102H185.975V35.2209H179.173V41.1142C179.173 42.1605 179.401 42.9137 180.378 42.9137C180.735 42.9137 181.386 42.816 181.94 42.5534L183.209 46.3184C182.103 46.9403 180.963 47.3972 178.751 47.3972C176.016 47.3972 174.063 45.6954 174.063 42.0628C174.063 36.9679 174.061 31.4664 174.063 25.9587L179.173 25.4355V31.0977ZM166.013 31.1345H171.092V47.1388H166.013V31.1345ZM165.999 22.9301H171.086V27.9115H165.999V22.9301ZM106.953 23.2851C108.767 23.2887 110.556 23.7062 112.185 24.5057C113.813 25.3052 115.238 26.4657 116.35 27.8989L112.301 31.416C111.692 30.5657 110.889 29.8725 109.959 29.3934C109.03 28.9143 107.999 28.6631 106.954 28.6605C106.085 28.6608 105.225 28.8329 104.423 29.1668C103.62 29.5006 102.892 29.9898 102.28 30.6061C101.039 31.8556 100.344 33.5453 100.345 35.306C100.345 38.9743 103.303 41.9493 106.953 41.9493C107.989 41.9475 109.01 41.7014 109.933 41.2311C110.856 40.7607 111.655 40.0793 112.266 39.2422L116.327 42.7614C115.212 44.1821 113.789 45.3312 112.165 46.1218C110.541 46.9125 108.759 47.3242 106.953 47.3258C100.351 47.3258 95 41.9441 95 35.306C94.998 32.1214 96.2569 29.0656 98.5013 26.8064C99.6084 25.6914 100.925 24.8062 102.375 24.2019C103.826 23.5976 105.381 23.286 106.953 23.2851ZM118.112 31.1376H123.186V33.3626H123.249C124.419 31.7269 126.079 30.8456 127.835 30.8456H128.031V36.3722C127.54 36.3407 127.085 36.3061 126.826 36.3061C124.419 36.3061 123.186 37.8429 123.186 39.9366V47.1346H118.111L118.112 31.1376ZM144.731 38.9565C144.731 39.4145 144.664 40.1656 144.633 40.4934H133.788C134.115 42.3265 135.646 43.274 137.6 43.274C138.902 43.2425 140.236 42.7488 141.309 41.5407L144.243 44.5504C142.906 46.2186 140.692 47.4308 137.078 47.4308C132.259 47.4308 128.739 44.0924 128.739 39.1182C128.739 34.2786 132.129 30.8456 136.947 30.8456C141.443 30.8456 144.731 34.2114 144.731 38.9565ZM136.876 34.9015C135.315 34.9015 134.144 35.8543 133.817 37.4648H139.773C139.45 35.889 138.408 34.9015 136.876 34.9015ZM153.57 47.2974C149.176 47.2974 146.051 43.9568 146.051 39.0163C146.051 34.1063 149.208 30.7027 153.31 30.7027C155.1 30.7027 156.727 31.3866 157.867 32.6987H157.898V22.9112H163.009V47.0012H158.158V45.2973H158.095C157.053 46.6083 155.556 47.2964 153.57 47.2964M154.617 42.7782C156.605 42.7782 158.104 41.3043 158.104 39.0153C158.104 36.8198 156.668 35.2156 154.617 35.2156C152.692 35.2156 151.192 36.7221 151.192 39.0153C151.192 41.2718 152.629 42.7782 154.617 42.7782ZM219.636 22.7305C221.752 22.7305 223.38 23.5824 223.932 23.9753L222.989 27.6731C222.305 27.3127 221.46 27.0837 221.004 27.0837C220.092 27.0837 219.507 27.5428 219.507 28.8192V31.1429H222.532V35.2661H219.507V47.1472H214.396V35.2661C214.394 35.2681 214.392 35.2696 214.39 35.2703V28.6206L214.396 28.6227C214.396 24.6623 216.448 22.7305 219.636 22.7305ZM232.078 47.3888C226.93 47.3888 223.445 43.9505 223.445 39.1077C223.445 34.2292 226.93 30.7941 232.078 30.7941C237.093 30.7941 240.675 34.162 240.675 39.1077C240.675 44.0167 237.093 47.3888 232.078 47.3888ZM232.073 42.8801C233.992 42.8801 235.522 41.3054 235.522 39.1119C235.522 36.8838 234.058 35.3407 232.073 35.3407C230.021 35.3407 228.591 36.9164 228.591 39.1119C228.591 41.2424 230.053 42.8801 232.074 42.8801M212.464 38.9554C212.464 39.4134 212.397 40.1645 212.365 40.4923H201.528C201.853 42.3254 203.383 43.273 205.338 43.273C206.638 43.2415 207.97 42.7477 209.044 41.5396L211.977 44.5493C210.641 46.2175 208.426 47.4298 204.815 47.4298C199.999 47.4298 196.481 44.0913 196.481 39.1172C196.481 34.2776 199.869 30.8445 204.684 30.8445C209.177 30.8445 212.464 34.2103 212.464 38.9554ZM204.618 34.9005C203.057 34.9005 201.887 35.8533 201.559 37.4637H207.515C207.193 35.888 206.15 34.9005 204.618 34.9005ZM242.671 31.1334H247.75V33.3584H247.813C248.985 31.7217 250.648 30.8403 252.404 30.8403H252.601V36.3701C252.11 36.3386 251.655 36.3029 251.395 36.3029C248.985 36.3029 247.749 37.8408 247.749 39.9366V47.1388H242.671V31.1334ZM254.369 31.0819H259.449L259.48 32.9802C260.719 31.541 262.311 30.7899 263.973 30.7899C265.99 30.7899 267.65 31.5095 268.659 33.1777C269.929 31.5725 271.816 30.7899 274.03 30.7899C277.382 30.7899 279.661 32.7186 279.661 37.76V47.0884H274.583V38.9365C274.583 36.8418 274.029 35.3365 272.272 35.3365C270.809 35.3365 269.604 36.5498 269.604 39.0678V47.0884H264.524V38.9365C264.524 36.8418 263.907 35.3365 262.217 35.3365C260.62 35.3365 259.449 36.5498 259.449 39.0678V47.0884H254.369V31.0819Z" fill="white"/>
<path d="M295.098 16.9854C296.761 16.2631 298.566 15.9302 300.377 16.0122C302.187 16.0941 303.955 16.5887 305.546 17.4581L303.223 22.303C302.326 21.7667 301.314 21.4518 300.271 21.3846C299.228 21.3173 298.184 21.4997 297.226 21.9164C296.428 22.2649 295.707 22.7671 295.104 23.3944C294.5 24.0216 294.027 24.7617 293.71 25.5722C293.066 27.2117 293.096 29.0392 293.794 30.6566C294.138 31.4559 294.635 32.1796 295.259 32.7863C295.883 33.3931 296.62 33.8709 297.428 34.1926C298.235 34.5134 299.097 34.6711 299.965 34.6567C300.833 34.6422 301.689 34.4559 302.484 34.1085C303.435 33.6912 304.274 33.0566 304.935 32.2558C305.596 31.455 306.059 30.5104 306.288 29.4979L311.406 31.102C310.946 32.8517 310.095 34.4745 308.919 35.849C307.742 37.2236 306.27 38.3143 304.613 39.0396C298.556 41.6805 291.517 38.8862 288.89 32.7954C287.628 29.8694 287.573 26.5634 288.738 23.5972C289.312 22.1313 290.169 20.7927 291.26 19.6581C292.352 18.5234 293.656 17.6149 295.098 16.9844M289.249 43.3834H310.06V47.515H289.249V43.3834Z" fill="white"/>
</g>
</svg>
