<svg width="608" height="118" viewBox="0 0 608 118" fill="none" xmlns="http://www.w3.org/2000/svg">
<g opacity="0.8">
<path d="M264.926 72.4702C264.706 71.3833 263.753 71.094 262.782 71.094C260.527 71.094 259.721 73.0487 259.757 74.7515C259.867 77.084 260.582 78.3576 263.203 78.4089C263.827 78.4089 264.45 78.3063 265.036 78.115V75.5446H262.947V74.4622H266.301V78.9641C265.256 79.2767 264.193 79.4913 263.148 79.4913C261.865 79.4913 260.802 79.328 259.794 78.4463C258.786 77.5646 258.438 76.0344 258.438 74.7515C258.438 73.8045 258.749 72.7735 259.226 71.9524C260.014 70.5669 261.37 70.0117 262.928 70.0117C264.468 70.0117 266.191 70.7161 266.265 72.4702" fill="white"/>
<path d="M272.626 75.531C272.662 74.472 272.167 73.6556 270.994 73.6556C270.004 73.6556 269.4 74.5 269.4 75.531H272.626ZM269.4 76.366C269.308 77.4763 269.766 78.6239 270.994 78.6239C271.947 78.6239 272.406 78.2554 272.552 77.3364H273.817C273.634 78.7732 272.516 79.4917 270.994 79.4917C268.941 79.4917 268.135 78.0548 268.135 76.1888C268.135 74.3367 269.07 72.7832 271.086 72.7832C272.992 72.8205 273.89 74.0195 273.89 75.7736V76.366" fill="white"/>
<path d="M276.916 73.9075H276.934C277.338 73.1098 278.236 72.7832 278.859 72.7832C279.317 72.7832 281.279 72.8952 281.279 74.9292V79.3004H280.069V75.321C280.069 74.2714 279.629 73.7022 278.602 73.7022C278.602 73.7022 277.943 73.6649 277.448 74.1734C277.264 74.346 276.934 74.626 276.934 75.8622V79.3004H275.725V72.9745H276.916" fill="white"/>
<path d="M286.043 76.2261C285.309 76.2634 284.319 76.5293 284.319 77.4483C284.319 78.2321 284.869 78.6239 285.584 78.6239C286.996 78.6239 287.271 77.397 287.252 76.2261H286.043ZM287.252 75.3957C287.252 74.2947 287.179 73.6556 285.896 73.6556C285.291 73.6556 284.723 74.0055 284.704 74.6633H283.44C283.495 73.2777 284.594 72.7832 285.841 72.7832C287.161 72.7832 288.444 73.1751 288.444 74.9385V77.9662C288.444 78.2461 288.462 78.7732 288.499 79.3004H287.692C287.582 79.3004 287.362 79.3657 287.344 79.2164C287.326 78.9225 287.289 78.6473 287.289 78.358H287.252C286.867 79.1511 286.152 79.4917 285.273 79.4917C284.173 79.4917 283.055 78.9225 283.055 77.6909C283.055 75.9135 284.649 75.3957 286.152 75.3957" fill="white"/>
<path d="M294.896 72.9746H296.106V79.3005H294.933V78.3675H294.896C294.419 79.1652 293.613 79.4918 292.715 79.4918C291.377 79.4918 290.625 78.4841 290.625 77.2106V72.9746H291.835V76.7161C291.835 77.817 292.091 78.6241 293.246 78.6241C293.741 78.6241 294.401 78.3675 294.658 77.7144C294.896 77.1219 294.896 76.3755 294.896 76.2262" fill="white"/>
<path d="M298.307 79.3006H299.773V77.7891H298.307V79.3006Z" fill="white"/>
<path d="M306.756 74.1106H308.846C310.257 74.0452 310.569 73.4155 310.569 72.697C310.569 71.9786 310.257 71.3488 308.846 71.2835H306.756V74.1106ZM306.775 75.1929V79.3028H305.51V70.2012H308.791C310.312 70.2012 311.907 70.6817 311.907 72.4824C311.907 73.5787 311.247 74.4278 310.184 74.6797V74.703C311.284 74.9689 311.43 75.5474 311.577 76.5691C311.724 77.4788 311.815 78.4491 312.145 79.3028H310.789C310.679 78.7617 310.514 78.1692 310.459 77.6281C310.349 76.807 310.349 76.0652 309.946 75.6127C309.561 75.1929 309.066 75.2349 308.553 75.1929" fill="white"/>
<path d="M314.088 79.3028V72.9769H315.298V79.3028H314.088ZM313.979 70.2012H315.408V71.4981H313.979" fill="white"/>
<path d="M321.164 75.0038C321.109 74.2107 320.724 73.6556 319.862 73.6556C318.707 73.6556 318.249 74.6493 318.249 76.1374C318.249 77.6256 318.707 78.6239 319.862 78.6239C320.65 78.6239 321.145 78.1061 321.219 77.1964H322.428C322.318 78.6239 321.255 79.4917 319.844 79.4917C317.791 79.4917 316.984 78.0548 316.984 76.1888C316.984 74.3367 317.919 72.7832 319.936 72.7832C321.292 72.7832 322.3 73.6276 322.373 75.0038" fill="white"/>
<path d="M324.023 79.3028V70.2012H325.233V73.8213H325.252C325.71 73.1122 326.388 72.7856 327.323 72.7856C328.991 72.7856 329.504 73.882 329.504 75.0203V79.3028H328.294V75.5614C328.294 74.4511 328.001 73.7327 326.883 73.7047C326.388 73.6953 325.655 74.0592 325.435 74.5911C325.16 75.2442 325.233 75.7014 325.233 76.0512V79.3028" fill="white"/>
<path d="M331.887 72.9768V71.6286L333.097 71.2461V72.9768L334.563 72.9395V73.8352L333.097 73.8212V77.9032C333.097 78.3604 333.445 78.575 333.867 78.575C334.068 78.575 334.325 78.547 334.508 78.5004V79.4194C334.233 79.4334 333.958 79.494 333.683 79.494C333.39 79.494 333.17 79.48 332.877 79.4334C332.675 79.3961 332.364 79.2934 332.162 79.0135C331.942 78.7103 331.887 78.687 331.887 77.8426V73.8212L330.787 73.8352V72.9395" fill="white"/>
<path d="M336.102 79.3028V72.9769H337.312V79.3028H336.102ZM335.992 70.2012H337.422V71.4981H335.992" fill="white"/>
<path d="M342.225 78.3207C343.527 78.3207 344.003 77.2104 344.003 75.9882C344.003 74.7659 343.527 73.6556 342.225 73.6556C340.814 73.6556 340.429 74.9898 340.429 75.9882C340.429 76.9818 340.814 78.3207 342.225 78.3207ZM344.04 72.9745H345.286C345.25 73.3523 345.213 73.7302 345.213 74.1081V78.5586C345.213 80.8772 344.205 81.8242 341.859 81.8242C340.484 81.8242 339.512 81.2458 339.494 79.7809H340.777C340.814 80.6253 341.4 80.9565 342.262 80.9565C343.967 80.9565 343.967 79.543 344.003 78.1154H343.967C343.582 78.8759 342.665 79.1884 341.877 79.1884C339.934 79.1884 339.164 77.8262 339.164 76.0488C339.164 74.2201 340.191 72.7832 342.115 72.7832C342.738 72.7832 343.417 73.0351 343.82 73.6136C343.838 73.6416 344.003 74.0055 344.003 73.9168" fill="white"/>
<path d="M347.34 79.3006H348.806V77.7891H347.34V79.3006Z" fill="white"/>
<path d="M257.797 47.6406H268.777V49.8752H264.744V61.0902H261.83V49.8752H257.797" fill="white"/>
<path d="M277.446 45.7558V43.5352H279.353V45.7558H277.446ZM274.22 45.7558V43.5352H276.126V45.7558H274.22ZM282.652 47.6358V56.0563C282.652 59.6345 280.067 61.3653 276.786 61.3653C273.505 61.3653 270.902 59.6345 270.902 56.0563V47.6358H273.817V54.9367C273.817 57.2133 273.927 59.2799 276.786 59.2799C279.628 59.2799 279.756 57.2133 279.756 54.9367V47.6358" fill="white"/>
<path d="M284.779 47.6406H287.95L291.47 58.2398H291.506L295.044 47.6406H297.922L292.936 61.0902H289.765" fill="white"/>
<path d="M302.21 53.416H305.308C307.397 53.3227 307.856 52.3897 307.856 51.3307C307.856 50.2671 307.397 49.3341 305.308 49.2408H302.21V53.416ZM302.247 55.0162V61.0902H300.377V47.6406H305.216C307.489 47.6406 309.835 48.3497 309.835 51.0135C309.835 52.6323 308.846 53.8826 307.287 54.2558V54.2931C308.919 54.6803 309.139 55.5387 309.34 57.0502C309.542 58.3891 309.707 59.8259 310.184 61.0902H308.186C308.002 60.2924 307.782 59.4154 307.691 58.613C307.544 57.4001 307.544 56.3037 306.921 55.632C306.371 55.0162 305.619 55.0721 304.868 55.0162" fill="white"/>
<path d="M312.896 61.0902V47.6406H314.675V52.9868H314.729C315.389 51.9419 316.416 51.4613 317.772 51.4613C320.229 51.4613 320.998 53.0801 320.998 54.7549V61.0902H319.22V55.5573C319.22 53.9199 318.799 52.8562 317.131 52.8189C316.416 52.8002 315.316 53.3414 314.986 54.1251C314.565 55.0908 314.675 55.7626 314.675 56.2851V61.0902" fill="white"/>
<path d="M330.016 55.5177C330.053 53.9548 329.338 52.7419 327.615 52.7419C326.13 52.7419 325.251 53.9922 325.251 55.5177H330.016ZM325.251 56.7492C325.122 58.3867 325.8 60.0801 327.615 60.0801C329.008 60.0801 329.705 59.5437 329.906 58.1814H331.776C331.501 60.3041 329.851 61.3677 327.597 61.3677C324.572 61.3677 323.381 59.2451 323.381 56.488C323.381 53.7496 324.774 51.459 327.743 51.459C330.566 51.515 331.904 53.2831 331.904 55.8722V56.7492" fill="white"/>
<path d="M334.197 50.0502H336.324V48.1328H334.197V50.0502Z" fill="white"/>
<path d="M334.363 61.0879H336.141V51.7344H334.363V61.0879Z" fill="white"/>
<path d="M340.997 53.1151H341.034C341.639 51.9395 342.959 51.459 343.893 51.459C344.553 51.459 347.468 51.6223 347.468 54.6219V61.0878H345.671V55.2004C345.671 53.6563 345.012 52.8166 343.527 52.8166C343.527 52.8166 342.537 52.7606 341.785 53.507C341.529 53.7682 341.034 54.1788 341.034 56.0028V61.0878H339.256V51.7342H340.997" fill="white"/>
<path d="M350.453 61.0902H352.231V47.6406H350.453V61.0902Z" fill="white"/>
<path d="M359.089 56.544C358.007 56.6 356.559 56.9918 356.559 58.3494C356.559 59.5063 357.366 60.0801 358.41 60.0801C360.518 60.0801 360.903 58.2748 360.867 56.544H359.089ZM360.867 55.3124C360.867 53.6936 360.775 52.7419 358.887 52.7419C357.989 52.7419 357.146 53.2644 357.127 54.2348H355.239C355.331 52.1821 356.962 51.459 358.814 51.459C360.738 51.459 362.663 52.0328 362.663 54.6406V59.1145C362.663 59.525 362.681 60.3041 362.736 61.0878H361.527C361.362 61.0878 361.05 61.1811 361.032 60.9572C360.995 60.528 360.958 60.1175 360.922 59.6929H360.885C360.317 60.8639 359.254 61.3677 357.971 61.3677C356.339 61.3677 354.689 60.528 354.689 58.7039C354.689 56.0775 357.036 55.3124 359.254 55.3124" fill="white"/>
<path d="M367.263 53.1678H367.3C367.904 51.9922 369.224 51.5117 370.159 51.5117C370.819 51.5117 373.733 51.6797 373.733 54.6747V61.1406H371.937V55.2531C371.937 53.709 371.296 52.8693 369.792 52.8693C369.792 52.8693 368.803 52.8133 368.051 53.5597C367.794 53.821 367.3 54.2315 367.3 56.0555V61.1406H365.521V51.787H367.263" fill="white"/>
<path d="M380.571 60.1854C382.734 60.1854 383.247 58.1934 383.247 56.444C383.247 54.7459 382.606 52.7352 380.571 52.7352C378.427 52.7352 377.913 54.6899 377.913 56.444C377.913 58.1934 378.573 60.1854 380.571 60.1854ZM383.211 47.6875H385.007V59.4809C385.007 60.0407 385.062 60.5959 385.099 61.1371H383.284L383.211 59.7422V59.6489H383.174C382.551 60.9505 381.304 61.417 379.93 61.417C377.144 61.417 376.025 58.8651 376.025 56.4626C376.025 53.9294 377.327 51.5082 380.26 51.5082C381.451 51.5082 382.643 51.9328 383.174 53.0524H383.211" fill="white"/>
<path d="M395.492 49.7518C395.492 51.7111 393.897 53.2973 391.936 53.2973C389.956 53.2973 388.361 51.7111 388.361 49.7518C388.361 47.7971 389.956 46.2109 391.936 46.2109C393.897 46.2109 395.492 47.7971 395.492 49.7518Z" stroke="white" stroke-width="0.712269"/>
<path d="M391.185 49.3947H392.138C392.761 49.3667 392.908 49.0821 392.908 48.7603C392.908 48.4384 392.761 48.1538 392.138 48.1258H391.185V49.3947ZM391.203 49.8799V51.7273H390.635V47.6406H392.101C392.798 47.6406 393.494 47.8552 393.494 48.6623C393.494 49.1568 393.201 49.5347 392.724 49.6466V49.6559C393.219 49.7772 393.293 50.0385 393.348 50.4957C393.421 50.9062 393.458 51.3401 393.604 51.7273H392.999C392.944 51.48 392.889 51.2141 392.853 50.9715C392.816 50.6076 392.816 50.2717 392.614 50.0665C392.449 49.8799 392.229 49.8985 391.991 49.8799" fill="white"/>
<path d="M248.485 66.0084L246.248 62.169C244.104 61.8004 241.886 61.5998 239.631 61.5998C236.497 61.5998 233.454 61.9824 230.558 62.7241C227.68 63.4752 224.6 63.8764 221.484 63.8764C220.366 63.8764 219.285 63.8297 218.203 63.7178L230.539 42.4961L238 55.2972C235.434 55.4092 232.977 55.7777 230.558 56.3889C228.798 56.8367 227.002 57.154 225.169 57.3359L222.914 61.1986C225.535 61.096 228.102 60.7041 230.558 60.0976C233.454 59.3512 236.497 58.964 239.631 58.964C241.299 58.964 242.967 59.076 244.58 59.2859L242.216 55.2226L236.094 44.7121L230.558 35.1719L212.393 66.4002C215.289 67.1886 218.332 67.5665 221.484 67.5665C224.6 67.5665 227.68 67.1886 230.558 66.4002C233.454 65.6911 236.497 65.2806 239.631 65.2806C242.766 65.2806 245.809 65.6911 248.723 66.4002" fill="white"/>
</g>
</svg>
